<?xml version="1.0" encoding="UTF-8"?><svg id="Layer_1" xmlns="http://www.w3.org/2000/svg" viewBox="0 0 360 105.66"><defs><style>.cls-1{fill:#00f399;}.cls-2{fill:#fff;}</style></defs><g><path class="cls-2" d="M112.4,56.15c2.32,9.41,10,14.99,18.48,14.99,7.21,0,13.48-3.83,17.43-7.67l6.97,8.48c-7.55,7.44-16.62,10.46-24.52,10.46-17.67,0-30.45-14.41-30.45-30.8s13.02-29.17,29.4-29.17,29.52,13.37,29.52,33.71h-46.84Zm34.29-9.3c-1.39-7.9-8.37-14.3-17.09-14.3-8.25,0-15.69,5.58-17.09,14.3h34.17Z"/><path class="cls-2" d="M214.87,29.42V.13h11.62V81.49h-9.88v-7.32c-5.11,5-12.2,8.25-19.99,8.25-16.62,0-29.99-13.48-29.99-29.99s13.37-29.99,29.99-29.99c6.97,0,13.48,2.67,18.25,6.97Zm.12,23.01c0-10.11-8.25-18.25-18.25-18.25s-18.25,8.14-18.25,18.25,8.25,18.13,18.25,18.13,18.25-8.14,18.25-18.13Z"/><path class="cls-2" d="M293.48,74.86c0,22.2-13.6,30.8-26.73,30.8-4.88,0-10.81-1.16-16.5-5l4.53-9.65c3.84,2.21,7.21,3.37,11.27,3.37,9.65,0,16.27-6.62,16.27-19.41-5.11,4.65-11.51,7.44-18.71,7.44-16.62,0-30.1-13.48-30.1-29.99s13.48-29.99,30.1-29.99c7.67,0,14.64,3.02,19.76,8.14v-7.21h10.11v51.49Zm-11.51-22.43c0-10.11-8.25-18.36-18.25-18.36s-18.36,8.25-18.36,18.36,8.25,18.25,18.36,18.25,18.25-8.25,18.25-18.25Z"/><path class="cls-2" d="M313.16,56.15c2.32,9.41,10,14.99,18.48,14.99,7.21,0,13.48-3.83,17.43-7.67l6.97,8.48c-7.55,7.44-16.62,10.46-24.52,10.46-17.67,0-30.45-14.41-30.45-30.8s13.02-29.17,29.4-29.17,29.52,13.37,29.52,33.71h-46.84Zm34.29-9.3c-1.39-7.9-8.37-14.3-17.09-14.3-8.25,0-15.69,5.58-17.09,14.3h34.17Z"/></g><g><polygon class="cls-1" points="87.01 11.92 61.24 82.81 1.52 82.81 14.92 45.95 38.45 45.95 50.83 11.92 87.01 11.92"/><polygon class="cls-1" points="45.45 0 31.97 36.96 0 36.96 13.49 0 45.45 0"/></g></svg>