<?xml version="1.0" encoding="UTF-8"?>
<svg width="102px" height="30px" viewBox="0 0 102 30" version="1.1" xmlns="http://www.w3.org/2000/svg" xmlns:xlink="http://www.w3.org/1999/xlink">
    <!-- Generator: Sketch 48.2 (47327) - http://www.bohemiancoding.com/sketch -->
    <title>edge_logo_light</title>
    <desc>Created with Sketch.</desc>
    <defs>
        <polygon id="path-1" points="16.6981132 17.1945849 16.6981132 0.221660377 0.0207735849 0.221660377 0.0207735849 17.1945849 16.6981132 17.1945849"></polygon>
    </defs>
    <g id="Navigation/header_L" stroke="none" stroke-width="1" fill="none" fill-rule="evenodd" transform="translate(-165.000000, -28.000000)">
        <g id="edge_logo_light" transform="translate(165.000000, 28.000000)">
            <path d="M41.513717,13.2606226 C41.1191887,11.0239245 39.1454151,9.21486792 36.6783396,9.21486792 C34.3431509,9.21486792 32.2377736,10.7935472 31.8429623,13.2606226 L41.513717,13.2606226 Z M31.8101321,15.8921321 C32.4678679,18.5564717 34.6389057,20.135434 37.0400377,20.135434 C39.0797547,20.135434 40.8559811,19.0500566 41.9741887,17.9643962 L43.9479623,20.3655283 C41.8097547,22.4709057 39.2441887,23.3259057 37.0074906,23.3259057 C32.0076792,23.3259057 28.389283,19.2473208 28.389283,14.6092075 C28.389283,9.90571698 32.0733396,6.35298113 36.7114528,6.35298113 C41.4808868,6.35298113 45.0664528,10.1358113 45.0664528,15.8921321 L31.8101321,15.8921321 Z" id="Fill-1" fill="#FFFFFF"></path>
            <path d="M60.8445566,14.8396132 C60.8445566,11.9777264 58.5093679,9.67536792 55.6803113,9.67536792 C52.8512547,9.67536792 50.516066,11.9777264 50.516066,14.8396132 C50.516066,17.6683868 52.8512547,19.9710283 55.6803113,19.9710283 C58.5093679,19.9710283 60.8445566,17.6683868 60.8445566,14.8396132 M60.8117264,8.3265 L60.8117264,0.0371603774 L64.1009717,0.0371603774 L64.1009717,23.0630094 L61.3050283,23.0630094 L61.3050283,20.9907453 C59.8576698,22.4049906 57.8513491,23.325934 55.6474811,23.325934 C50.9437075,23.325934 47.1608774,19.5102736 47.1608774,14.8396132 C47.1608774,10.1358396 50.9437075,6.35300943 55.6474811,6.35300943 C57.6209717,6.35300943 59.4631415,7.10980189 60.8117264,8.3265" id="Fill-3" fill="#FFFFFF"></path>
            <path d="M79.8029434,14.8396132 C79.8029434,11.9777264 77.4677547,9.64253774 74.6386981,9.64253774 C71.8099245,9.64253774 69.4413396,11.9777264 69.4413396,14.8396132 C69.4413396,17.6683868 71.7770943,20.0038585 74.6386981,20.0038585 C77.5005849,20.0038585 79.8029434,17.6683868 79.8029434,14.8396132 Z M83.0593585,21.1880094 C83.0593585,27.4707453 79.2108679,29.9047075 75.4939811,29.9047075 C74.112566,29.9047075 72.4348302,29.5758396 70.8230377,28.4904623 L72.1059623,25.7601792 C73.1916226,26.3853679 74.1453962,26.7142358 75.296717,26.7142358 C78.027,26.7142358 79.901717,24.8392358 79.901717,21.2211226 C78.4543585,22.5365943 76.6453019,23.325934 74.6058679,23.325934 C69.9020943,23.325934 66.086434,19.5102736 66.086434,14.8396132 C66.086434,10.1686698 69.9020943,6.35300943 74.6058679,6.35300943 C76.7769057,6.35300943 78.7503962,7.20829245 80.1977547,8.65536792 L80.1977547,6.61621698 L83.0593585,6.61621698 L83.0593585,21.1880094 Z" id="Fill-5" fill="#FFFFFF"></path>
            <g id="Group-9" transform="translate(85.188679, 6.131321)">
                <mask id="mask-2" fill="white">
                    <use xlink:href="#path-1"></use>
                </mask>
                <g id="Clip-8"></g>
                <path d="M13.1454906,7.12930189 C12.7506792,4.89260377 10.7771887,3.08354717 8.31011321,3.08354717 C5.97464151,3.08354717 3.86954717,4.66222642 3.47473585,7.12930189 L13.1454906,7.12930189 Z M3.44190566,9.76081132 C4.09964151,12.4251509 6.27067925,14.0041132 8.67181132,14.0041132 C10.7112453,14.0041132 12.4877547,12.9187358 13.6059623,11.8330755 L15.5797358,14.2342075 C13.4415283,16.3395849 10.8756792,17.1945849 8.63926415,17.1945849 C3.63945283,17.1945849 0.0207735849,13.116 0.0207735849,8.47788679 C0.0207735849,3.77439623 3.70511321,0.221660377 8.3429434,0.221660377 C13.1126604,0.221660377 16.6982264,4.00449057 16.6982264,9.76081132 L3.44190566,9.76081132 Z" id="Fill-7" fill="#FFFFFF" mask="url(#mask-2)"></path>
            </g>
            <polygon id="Fill-10" fill="#66EDA8" points="24.6265755 3.37239623 17.3326132 23.4358868 0.429311321 23.4358868 4.22148113 13.0035283 10.8831792 13.0040943 14.3852547 3.37239623"></polygon>
            <polygon id="Fill-12" fill="#66EDA8" points="12.8641415 0.000198113208 9.04904717 10.4600094 8.49056604e-05 10.4600094 3.81716038 0.000198113208"></polygon>
        </g>
    </g>
</svg>